PathFileType	4	(X/Y/Z)	./resultDataOpenSim/trcMotMarkerGrf/sub10/qtm-03-06.trc
DataRate	CameraRate	NumFrames	NumMarkers	Units	OrigDataRate	OrigDataStartFrame	OrigNumFrames
250.000000	250.000000	14	24	m	250.000000	127	504
Frame#	Time	L.Toe.Tip			R.Toe.Tip			L.Ankle.Lat			R.Ankle.Lat			L.Ankle.Med			R.Ankle.Med			L.Heel			R.Heel			L.Knee.Lat			R.Knee.Lat			L.Knee.Med			R.Knee.Med			L.Thigh.Upper			R.Thigh.Upper			L.ASIS			R.ASIS			V.Sacral			L.Acromium			R.Acromium			C7			L.Elbow			R.Elbow			L.Wrist.Lat			R.Wrist.Lat
		X1	Y1	Z1	X2	Y2	Z2	X3	Y3	Z3	X4	Y4	Z4	X5	Y5	Z5	X6	Y6	Z6	X7	Y7	Z7	X8	Y8	Z8	X9	Y9	Z9	X10	Y10	Z10	X11	Y11	Z11	X12	Y12	Z12	X13	Y13	Z13	X14	Y14	Z14	X15	Y15	Z15	X16	Y16	Z16	X17	Y17	Z17	X18	Y18	Z18	X19	Y19	Z19	X20	Y20	Z20	X21	Y21	Z21	X22	Y22	Z22	X23	Y23	Z23	X24	Y24	Z24

127	0.504	-0.49742943	0.071080972	-0.1893823	-0.83710921	0.039162278	-0.030484574	-0.62814839	0.10330798	-0.19585165	-0.97836296	0.055450162	-0.010562994	-0.6078236	0.12092894	-0.11389847	-0.95226021	0.080857866	-0.09347088	-0.68586664	0.072428021	-0.14138675	-1.0265382	0.031800675	-0.064133544	-0.55798832	0.48789629	-0.2142003	-0.8545982	0.43711954	0.044864674	-0.53947142	0.46238592	-0.095459386	-0.83782853	0.44279796	-0.083957166	-0.71636817	0.83458142	-0.26141905	-0.80663845	0.8474166	0.11253217	-0.68061769	0.94025925	-0.18451689	-0.71808063	0.93870646	0.057723062	-0.89664423	0.9521503	-0.10165825	-0.75473922	1.4068587	-0.23708057	-0.7877402	1.4118082	0.087124224	-0.85289465	1.4355781	-0.085472762	-0.87218263	1.085216	-0.31965835	-0.79946046	1.055283	0.15388595	-0.7360013	0.87824422	-0.32531675	-0.59419682	0.91547532	0.16818507
128	0.508	-0.47950378	0.071070316	-0.18731061	-0.83709382	0.039098011	-0.03055134	-0.61097502	0.10040771	-0.19481341	-0.97829821	0.055568668	-0.010743862	-0.59143718	0.11898073	-0.11267663	-0.95204931	0.080826498	-0.093688588	-0.66812716	0.068470093	-0.14043452	-1.026501	0.031958102	-0.064304833	-0.55072428	0.48702949	-0.21396489	-0.85248612	0.43656449	0.044702394	-0.53238695	0.46190756	-0.095158476	-0.83499668	0.44240008	-0.083863345	-0.70931903	0.83402939	-0.26113126	-0.80300468	0.84662918	0.11241229	-0.67433959	0.93930567	-0.1839382	-0.71354612	0.93762932	0.05812987	-0.88998186	0.95119642	-0.1015185	-0.74913197	1.4057159	-0.23682423	-0.78233718	1.4109371	0.087366353	-0.84733542	1.4345838	-0.085240653	-0.86743863	1.084735	-0.3194216	-0.79183877	1.0542133	0.1542948	-0.7330687	0.87673627	-0.32615459	-0.58445085	0.91729337	0.16714711
129	0.512	-0.46156546	0.071070578	-0.18508334	-0.83704337	0.039058615	-0.030604757	-0.59380764	0.097649387	-0.19387423	-0.97819598	0.055705092	-0.010949853	-0.57503499	0.11717858	-0.11151654	-0.95181655	0.080793571	-0.093907375	-0.65049948	0.0647322	-0.13967587	-1.0264587	0.032129257	-0.064474801	-0.5434872	0.48600279	-0.2137686	-0.85032403	0.43598999	0.044502299	-0.52543707	0.46127259	-0.09490172	-0.83231186	0.44193158	-0.083896386	-0.70216786	0.83342536	-0.26084	-0.79931921	0.84581325	0.1122751	-0.66790908	0.93829283	-0.1833137	-0.70897947	0.93652816	0.058510318	-0.88298599	0.95018009	-0.10095397	-0.7434796	1.4045045	-0.23656431	-0.77685904	1.4099906	0.087588467	-0.84174917	1.433536	-0.084998369	-0.86263479	1.0842112	-0.31904146	-0.78420889	1.0530999	0.15468653	-0.73011695	0.87517931	-0.32698037	-0.57472387	0.91907484	0.16604502
130	0.516	-0.44363864	0.071025833	-0.18272589	-0.83697144	0.039033808	-0.030648424	-0.57657453	0.095062036	-0.1930279	-0.97805082	0.055861232	-0.011179841	-0.55867788	0.1155009	-0.11045969	-0.95155626	0.080756931	-0.094128753	-0.63292064	0.061255572	-0.1390659	-1.026411	0.032309607	-0.064657124	-0.53625802	0.48482419	-0.21362282	-0.84814007	0.43540118	0.04426363	-0.51863556	0.46047012	-0.094698276	-0.8297157	0.44139333	-0.084018907	-0.6949905	0.83275013	-0.26055042	-0.79555565	0.84497149	0.11207027	-0.66118218	0.93722361	-0.1826	-0.70439899	0.9354099	0.058864478	-0.87612919	0.94909119	-0.10067088	-0.73779649	1.4032285	-0.23630809	-0.7713158	1.4089813	0.087804723	-0.83615095	1.4324286	-0.084764122	-0.85786477	1.0836025	-0.3188749	-0.77655836	1.0519261	0.15507215	-0.72714609	0.87358664	-0.32778871	-0.56498849	0.92081932	0.16485404
131	0.52	-0.42576412	0.070862162	-0.18028337	-0.83689611	0.038999331	-0.030687807	-0.55923897	0.092655261	-0.19225849	-0.97786455	0.056035988	-0.01142192	-0.54241208	0.11392858	-0.10954105	-0.95127318	0.080719325	-0.094360907	-0.61537905	0.058062012	-0.13858998	-1.0263603	0.032501279	-0.064860906	-0.52904628	0.48350227	-0.21352652	-0.84595976	0.43480045	0.04398951	-0.51196104	0.45949992	-0.094528695	-0.8271033	0.44080174	-0.084178959	-0.68790031	0.83197577	-0.26026481	-0.79171753	0.84412104	0.11179309	-0.65429862	0.93609114	-0.18184097	-0.69981463	0.93427133	0.059192167	-0.86967292	0.94791861	-0.10105679	-0.7320924	1.4018968	-0.23606041	-0.76574027	1.4079107	0.088017046	-0.83055339	1.4312573	-0.084550364	-0.85317417	1.0828913	-0.31908676	-0.76889091	1.0506847	0.15546479	-0.72415831	0.87196901	-0.32857673	-0.55529034	0.92252817	0.16360404
132	0.524	-0.4079705	0.070533867	-0.17778472	-0.83683506	0.038923813	-0.030727727	-0.54187355	0.090409835	-0.1915649	-0.97765241	0.05622252	-0.011661042	-0.52623527	0.11245903	-0.10877229	-0.95097958	0.080683751	-0.09460433	-0.59792593	0.055174115	-0.13826573	-1.0263092	0.03271024	-0.065079761	-0.52189575	0.48204204	-0.21345117	-0.8437452	0.43419123	0.043705378	-0.50537004	0.45837202	-0.094358862	-0.82440451	0.44016561	-0.084344409	-0.68096486	0.83108734	-0.25998845	-0.78782831	0.84326996	0.1114788	-0.64756962	0.93489113	-0.18113122	-0.69521701	0.93310863	0.059501357	-0.86349495	0.94666245	-0.10192838	-0.72637463	1.4005139	-0.23582059	-0.76016272	1.4067765	0.088223265	-0.82495801	1.4300255	-0.084356997	-0.84845115	1.0821372	-0.3192615	-0.76123323	1.0493847	0.1558789	-0.72115688	0.87032556	-0.32934294	-0.54568271	0.92420696	0.16233444
133	0.528	-0.39027957	0.070033097	-0.1752445	-0.83680177	0.038785608	-0.03077285	-0.52457551	0.088308339	-0.19096695	-0.97743835	0.056411765	-0.011887652	-0.51012324	0.11110032	-0.10815138	-0.95069001	0.080651231	-0.094848832	-0.58057455	0.052622295	-0.13807163	-1.0262581	0.032940244	-0.065307531	-0.51483941	0.48044551	-0.21336478	-0.8413971	0.43358314	0.043456385	-0.49883378	0.45709067	-0.094168939	-0.82159512	0.43947818	-0.08450197	-0.67412718	0.83009403	-0.25972076	-0.78393052	0.84242115	0.11119159	-0.64112573	0.93363295	-0.18050314	-0.69059081	0.93192495	0.059804366	-0.85737418	0.94532969	-0.10295112	-0.72065076	1.3990761	-0.23557837	-0.75459116	1.4055831	0.088432875	-0.81935576	1.4287417	-0.08417457	-0.84355189	1.0814139	-0.31887693	-0.7536196	1.0480415	0.15632935	-0.7181472	0.86864998	-0.33008691	-0.53617447	0.92585451	0.16105256
134	0.532	-0.37272019	0.06937543	-0.17267895	-0.83679301	0.038605925	-0.030824039	-0.50737823	0.086360339	-0.19048818	-0.97723336	0.05660187	-0.012097557	-0.49406711	0.10985963	-0.10767517	-0.95040972	0.080622503	-0.095084824	-0.56332126	0.050416681	-0.13797961	-1.0262046	0.033189487	-0.065555712	-0.50786351	0.47872163	-0.21325598	-0.8388759	0.43298321	0.043259218	-0.49234793	0.45565115	-0.093956065	-0.81867624	0.43872324	-0.084649746	-0.66721677	0.82902082	-0.25944306	-0.78008157	0.84157886	0.11101164	-0.63481686	0.93233918	-0.17990015	-0.68592281	0.93072217	0.060103616	-0.85124565	0.94393162	-0.10398266	-0.71492365	1.3975775	-0.23531581	-0.74901723	1.4043373	0.08866319	-0.81373175	1.4274107	-0.083989974	-0.83849931	1.0807083	-0.31803224	-0.74607122	1.0466664	0.15682108	-0.71513461	0.86694031	-0.33081015	-0.52673618	0.92745494	0.15973574
135	0.536	-0.35532474	0.068589686	-0.17010258	-0.8367866	0.038442779	-0.030873982	-0.49027835	0.084589441	-0.19014164	-0.97702689	0.056798331	-0.01229083	-0.47808519	0.10873996	-0.10734563	-0.95012673	0.080600824	-0.095313127	-0.54622685	0.048536293	-0.13804956	-1.0261467	0.033454472	-0.065840906	-0.50092996	0.47688929	-0.21312754	-0.83627254	0.43238155	0.043078882	-0.48591288	0.45404972	-0.093725435	-0.81565854	0.43788929	-0.084790529	-0.66009499	0.82788701	-0.25913299	-0.77634016	0.84074779	0.1110144	-0.62837819	0.93102998	-0.17923885	-0.68121303	0.92949913	0.060395828	-0.84524506	0.94249217	-0.10509059	-0.70918429	1.396022	-0.23502666	-0.74343077	1.4030387	0.088919617	-0.80807163	1.4260316	-0.083792606	-0.83347313	1.0799264	-0.31739124	-0.73858494	1.0452636	0.15733952	-0.71212023	0.86519711	-0.33151409	-0.51734915	0.92898951	0.15836801
136	0.54	-0.33811203	0.067715148	-0.16751833	-0.83676067	0.038334413	-0.030911994	-0.47327556	0.083008308	-0.18992599	-0.9768008	0.057006255	-0.012474418	-0.46221714	0.10774117	-0.10716491	-0.94982172	0.080590614	-0.095541833	-0.52939437	0.046960007	-0.13846553	-1.0260836	0.033736941	-0.066159732	-0.49401838	0.47496679	-0.21297734	-0.8337272	0.43175525	0.042865703	-0.47952732	0.45228721	-0.093484446	-0.81255945	0.43697566	-0.084924536	-0.65282647	0.82668869	-0.25879526	-0.77270848	0.83992945	0.11118961	-0.62164827	0.92970403	-0.17848591	-0.67648548	0.92825381	0.060677265	-0.8395817	0.94104905	-0.10638674	-0.70342101	1.3944239	-0.23473038	-0.73782532	1.4016808	0.089187389	-0.80236674	1.4246004	-0.083579195	-0.82861722	1.0789948	-0.3174564	-0.73113663	1.043832	0.15785546	-0.70909732	0.86341999	-0.33219982	-0.50802515	0.93045077	0.15695784
137	0.544	-0.32108619	0.066799585	-0.16492221	-0.83671113	0.038272281	-0.03093441	-0.45638727	0.08161178	-0.18983387	-0.97655025	0.057224886	-0.012662711	-0.44650475	0.1068635	-0.1071225	-0.94948713	0.080593675	-0.095777143	-0.51291716	0.045682534	-0.13946311	-1.026015	0.034040794	-0.066494243	-0.48714388	0.47296186	-0.21279787	-0.83131588	0.43108878	0.042596317	-0.47319852	0.45036673	-0.09323474	-0.80940019	0.43598944	-0.085045378	-0.6456194	0.82540432	-0.25846029	-0.76902985	0.8391028	0.11131395	-0.61472091	0.92833603	-0.17769973	-0.67176657	0.92698215	0.060940795	-0.83428248	0.93962752	-0.1078278	-0.69764467	1.392793	-0.23445445	-0.73220009	1.4002592	0.089446625	-0.79662067	1.4231136	-0.08335927	-0.82388793	1.0779431	-0.31801728	-0.72369886	1.0423702	0.15834574	-0.70605056	0.86161214	-0.33286891	-0.49878089	0.93184269	0.15552209
138	0.548	-0.30426643	0.065887431	-0.16231264	-0.83665009	0.038228446	-0.030946232	-0.43965627	0.08040201	-0.18986618	-0.97630189	0.057445298	-0.012872322	-0.4309737	0.10610744	-0.10719177	-0.94913317	0.080609434	-0.096018322	-0.49682262	0.044688631	-0.14108553	-1.0259408	0.034365195	-0.0668352	-0.48034443	0.47087453	-0.21258795	-0.82900461	0.43038805	0.042284687	-0.46694022	0.44829353	-0.092971259	-0.8061972	0.43494101	-0.085143692	-0.63858733	0.82401709	-0.25814892	-0.76503764	0.83821724	0.11104105	-0.60783052	0.92690576	-0.17697094	-0.66705353	0.92568006	0.061179639	-0.8290817	0.93819948	-0.10925739	-0.69187699	1.3911263	-0.23420559	-0.72655669	1.3987751	0.089689458	-0.79086024	1.4215763	-0.083170425	-0.81912234	1.076878	-0.31839908	-0.71626946	1.0408754	0.15882847	-0.70296381	0.85978288	-0.33352183	-0.48961997	0.9331726	0.15407111
139	0.552	-0.28770585	0.065002378	-0.1596946	-0.83659416	0.038183134	-0.030953582	-0.42313759	0.079408501	-0.19003126	-0.9761093	0.057657144	-0.013112405	-0.41564448	0.10546163	-0.10734335	-0.9487743	0.08063836	-0.096260315	-0.48102761	0.04393202	-0.14303484	-1.0258625	0.034709987	-0.067176473	-0.47364833	0.46871038	-0.21235279	-0.82669072	0.42967112	0.041968033	-0.46075519	0.44607326	-0.092691591	-0.80295671	0.43384037	-0.085215374	-0.63166279	0.82252817	-0.25785387	-0.7606088	0.83723154	0.11024458	-0.60107021	0.9254288	-0.17631886	-0.66232281	0.92434475	0.061394384	-0.82367611	0.93668883	-0.11068688	-0.68608742	1.389416	-0.23396199	-0.72089169	1.3972342	0.089920766	-0.78514496	1.4200137	-0.083100264	-0.81426281	1.0758666	-0.31827752	-0.70889686	1.039338	0.15939747	-0.69982895	0.85794254	-0.33416158	-0.48053908	0.9344456	0.15260891
140	0.556	-0.27146204	0.064149546	-0.15708002	-0.83655342	0.038129968	-0.030958469	-0.40686602	0.078664934	-0.1903241	-0.97600491	0.057872818	-0.013372856	-0.400559	0.10490803	-0.10756018	-0.94841353	0.080683702	-0.09649985	-0.46542022	0.043356136	-0.1449468	-1.0257817	0.03508487	-0.067502944	-0.4670561	0.46648784	-0.21209784	-0.82429815	0.42894864	0.041675185	-0.45463395	0.44371167	-0.092402494	-0.79967761	0.43269774	-0.085265953	-0.62468591	0.82095249	-0.25754963	-0.7558827	0.83615069	0.10914361	-0.59434387	0.92393949	-0.17568962	-0.65756111	0.92297458	0.061595165	-0.81799345	0.93504358	-0.112305	-0.6801852	1.3876596	-0.2336933	-0.7152027	1.3956439	0.090148878	-0.77954873	1.4184651	-0.083263613	-0.80941518	1.0748729	-0.31799936	-0.70164859	1.0377364	0.16017636	-0.69664771	0.8560968	-0.3347982	-0.47153541	0.9356637	0.15113527
